<mxfile host="app.diagrams.net" agent="Mozilla/5.0 (Windows NT 10.0; Win64; x64) AppleWebKit/537.36 (KHTML, like Gecko) Chrome/136.0.0.0 Safari/537.36" version="27.0.9">
  <diagram name="Página-1" id="dYh6UkDl2ZiYQuuYT1Ve">
    <mxGraphModel dx="871" dy="1231" grid="1" gridSize="11" guides="1" tooltips="1" connect="1" arrows="1" fold="1" page="1" pageScale="1" pageWidth="1654" pageHeight="2336" math="0" shadow="0">
      <root>
        <mxCell id="0" />
        <mxCell id="1" parent="0" />
        <mxCell id="TqkgZ3Jv7YVPUxNufO3M-1" value="Cliente" style="swimlane;fontStyle=0;childLayout=stackLayout;horizontal=1;startSize=26;fillColor=none;horizontalStack=0;resizeParent=1;resizeParentMax=0;resizeLast=0;collapsible=1;marginBottom=0;whiteSpace=wrap;html=1;" vertex="1" parent="1">
          <mxGeometry x="844" y="922" width="140" height="110" as="geometry" />
        </mxCell>
        <mxCell id="TqkgZ3Jv7YVPUxNufO3M-4" value="- NIF&lt;div&gt;- Nombre&lt;/div&gt;&lt;div&gt;- Apellidos&lt;/div&gt;&lt;div&gt;- Dirección&lt;/div&gt;&lt;div&gt;- Teléfono&lt;/div&gt;" style="text;strokeColor=none;fillColor=none;align=left;verticalAlign=top;spacingLeft=4;spacingRight=4;overflow=hidden;rotatable=0;points=[[0,0.5],[1,0.5]];portConstraint=eastwest;whiteSpace=wrap;html=1;" vertex="1" parent="TqkgZ3Jv7YVPUxNufO3M-1">
          <mxGeometry y="26" width="140" height="84" as="geometry" />
        </mxCell>
        <mxCell id="TqkgZ3Jv7YVPUxNufO3M-21" style="edgeStyle=orthogonalEdgeStyle;rounded=0;orthogonalLoop=1;jettySize=auto;html=1;entryX=0;entryY=0.5;entryDx=0;entryDy=0;" edge="1" parent="1" source="TqkgZ3Jv7YVPUxNufO3M-5" target="TqkgZ3Jv7YVPUxNufO3M-18">
          <mxGeometry relative="1" as="geometry" />
        </mxCell>
        <mxCell id="TqkgZ3Jv7YVPUxNufO3M-5" value="Mayoristas" style="swimlane;fontStyle=0;childLayout=stackLayout;horizontal=1;startSize=26;fillColor=none;horizontalStack=0;resizeParent=1;resizeParentMax=0;resizeLast=0;collapsible=1;marginBottom=0;whiteSpace=wrap;html=1;" vertex="1" parent="1">
          <mxGeometry x="594" y="1284" width="140" height="80" as="geometry" />
        </mxCell>
        <mxCell id="TqkgZ3Jv7YVPUxNufO3M-8" value="&lt;div&gt;-&amp;nbsp;&lt;span style=&quot;background-color: transparent; color: light-dark(rgb(0, 0, 0), rgb(255, 255, 255));&quot;&gt;CodGrupo&lt;/span&gt;&lt;/div&gt;- Almacén&lt;div&gt;- NumTarjetaBancaria&lt;/div&gt;" style="text;strokeColor=none;fillColor=none;align=left;verticalAlign=top;spacingLeft=4;spacingRight=4;overflow=hidden;rotatable=0;points=[[0,0.5],[1,0.5]];portConstraint=eastwest;whiteSpace=wrap;html=1;" vertex="1" parent="TqkgZ3Jv7YVPUxNufO3M-5">
          <mxGeometry y="26" width="140" height="54" as="geometry" />
        </mxCell>
        <mxCell id="TqkgZ3Jv7YVPUxNufO3M-25" style="edgeStyle=orthogonalEdgeStyle;rounded=0;orthogonalLoop=1;jettySize=auto;html=1;entryX=1;entryY=0.5;entryDx=0;entryDy=0;" edge="1" parent="1" source="TqkgZ3Jv7YVPUxNufO3M-9" target="TqkgZ3Jv7YVPUxNufO3M-18">
          <mxGeometry relative="1" as="geometry" />
        </mxCell>
        <mxCell id="TqkgZ3Jv7YVPUxNufO3M-9" value="Minoristas" style="swimlane;fontStyle=0;childLayout=stackLayout;horizontal=1;startSize=26;fillColor=none;horizontalStack=0;resizeParent=1;resizeParentMax=0;resizeLast=0;collapsible=1;marginBottom=0;whiteSpace=wrap;html=1;" vertex="1" parent="1">
          <mxGeometry x="1114" y="1282" width="140" height="70" as="geometry" />
        </mxCell>
        <mxCell id="TqkgZ3Jv7YVPUxNufO3M-11" value="- CodGrupo&lt;br&gt;- NumCuentaBancaria" style="text;strokeColor=none;fillColor=none;align=left;verticalAlign=top;spacingLeft=4;spacingRight=4;overflow=hidden;rotatable=0;points=[[0,0.5],[1,0.5]];portConstraint=eastwest;whiteSpace=wrap;html=1;" vertex="1" parent="TqkgZ3Jv7YVPUxNufO3M-9">
          <mxGeometry y="26" width="140" height="44" as="geometry" />
        </mxCell>
        <mxCell id="TqkgZ3Jv7YVPUxNufO3M-13" value="ClientesGrupo" style="swimlane;fontStyle=0;childLayout=stackLayout;horizontal=1;startSize=26;fillColor=none;horizontalStack=0;resizeParent=1;resizeParentMax=0;resizeLast=0;collapsible=1;marginBottom=0;whiteSpace=wrap;html=1;" vertex="1" parent="1">
          <mxGeometry x="834" y="1412" width="140" height="80" as="geometry" />
        </mxCell>
        <mxCell id="TqkgZ3Jv7YVPUxNufO3M-16" value="&lt;div&gt;-&amp;nbsp;&lt;span style=&quot;background-color: transparent; color: light-dark(rgb(0, 0, 0), rgb(255, 255, 255));&quot;&gt;CodGrupo&lt;/span&gt;&lt;/div&gt;- ActividadRealizada" style="text;strokeColor=none;fillColor=none;align=left;verticalAlign=top;spacingLeft=4;spacingRight=4;overflow=hidden;rotatable=0;points=[[0,0.5],[1,0.5]];portConstraint=eastwest;whiteSpace=wrap;html=1;" vertex="1" parent="TqkgZ3Jv7YVPUxNufO3M-13">
          <mxGeometry y="26" width="140" height="54" as="geometry" />
        </mxCell>
        <mxCell id="TqkgZ3Jv7YVPUxNufO3M-26" style="edgeStyle=orthogonalEdgeStyle;rounded=0;orthogonalLoop=1;jettySize=auto;html=1;" edge="1" parent="1" source="TqkgZ3Jv7YVPUxNufO3M-17">
          <mxGeometry relative="1" as="geometry">
            <mxPoint x="894" y="1042" as="targetPoint" />
          </mxGeometry>
        </mxCell>
        <mxCell id="TqkgZ3Jv7YVPUxNufO3M-17" value="Cliente-Pertenece" style="swimlane;fontStyle=0;childLayout=stackLayout;horizontal=1;startSize=26;fillColor=none;horizontalStack=0;resizeParent=1;resizeParentMax=0;resizeLast=0;collapsible=1;marginBottom=0;whiteSpace=wrap;html=1;" vertex="1" parent="1">
          <mxGeometry x="854" y="1172" width="140" height="78" as="geometry" />
        </mxCell>
        <mxCell id="TqkgZ3Jv7YVPUxNufO3M-18" value="- IdCliente" style="text;strokeColor=none;fillColor=none;align=left;verticalAlign=top;spacingLeft=4;spacingRight=4;overflow=hidden;rotatable=0;points=[[0,0.5],[1,0.5]];portConstraint=eastwest;whiteSpace=wrap;html=1;" vertex="1" parent="TqkgZ3Jv7YVPUxNufO3M-17">
          <mxGeometry y="26" width="140" height="26" as="geometry" />
        </mxCell>
        <mxCell id="TqkgZ3Jv7YVPUxNufO3M-19" value="- CodGrupo" style="text;strokeColor=none;fillColor=none;align=left;verticalAlign=top;spacingLeft=4;spacingRight=4;overflow=hidden;rotatable=0;points=[[0,0.5],[1,0.5]];portConstraint=eastwest;whiteSpace=wrap;html=1;" vertex="1" parent="TqkgZ3Jv7YVPUxNufO3M-17">
          <mxGeometry y="52" width="140" height="26" as="geometry" />
        </mxCell>
        <mxCell id="TqkgZ3Jv7YVPUxNufO3M-23" style="edgeStyle=orthogonalEdgeStyle;rounded=0;orthogonalLoop=1;jettySize=auto;html=1;entryX=0.421;entryY=1.154;entryDx=0;entryDy=0;entryPerimeter=0;" edge="1" parent="1" source="TqkgZ3Jv7YVPUxNufO3M-13" target="TqkgZ3Jv7YVPUxNufO3M-19">
          <mxGeometry relative="1" as="geometry">
            <Array as="points">
              <mxPoint x="904" y="1254" />
            </Array>
          </mxGeometry>
        </mxCell>
        <mxCell id="TqkgZ3Jv7YVPUxNufO3M-27" value="Pedido" style="swimlane;fontStyle=0;childLayout=stackLayout;horizontal=1;startSize=26;fillColor=none;horizontalStack=0;resizeParent=1;resizeParentMax=0;resizeLast=0;collapsible=1;marginBottom=0;whiteSpace=wrap;html=1;" vertex="1" parent="1">
          <mxGeometry x="614" y="709" width="140" height="100" as="geometry" />
        </mxCell>
        <mxCell id="TqkgZ3Jv7YVPUxNufO3M-28" value="- CodPedido&lt;div&gt;- Fecha&lt;/div&gt;&lt;div&gt;- Documento&lt;/div&gt;&lt;div&gt;&lt;br&gt;&lt;/div&gt;" style="text;strokeColor=none;fillColor=none;align=left;verticalAlign=top;spacingLeft=4;spacingRight=4;overflow=hidden;rotatable=0;points=[[0,0.5],[1,0.5]];portConstraint=eastwest;whiteSpace=wrap;html=1;" vertex="1" parent="TqkgZ3Jv7YVPUxNufO3M-27">
          <mxGeometry y="26" width="140" height="74" as="geometry" />
        </mxCell>
        <mxCell id="TqkgZ3Jv7YVPUxNufO3M-31" value="Artículo" style="swimlane;fontStyle=0;childLayout=stackLayout;horizontal=1;startSize=26;fillColor=none;horizontalStack=0;resizeParent=1;resizeParentMax=0;resizeLast=0;collapsible=1;marginBottom=0;whiteSpace=wrap;html=1;" vertex="1" parent="1">
          <mxGeometry x="1084" y="709" width="140" height="110" as="geometry" />
        </mxCell>
        <mxCell id="TqkgZ3Jv7YVPUxNufO3M-32" value="- CódigoArtículo&lt;div&gt;- Nombre&lt;/div&gt;&lt;div&gt;- Precio: double&lt;/div&gt;&lt;div&gt;- Existencias: int&lt;/div&gt;&lt;div&gt;- CodIVA&lt;/div&gt;" style="text;strokeColor=none;fillColor=none;align=left;verticalAlign=top;spacingLeft=4;spacingRight=4;overflow=hidden;rotatable=0;points=[[0,0.5],[1,0.5]];portConstraint=eastwest;whiteSpace=wrap;html=1;" vertex="1" parent="TqkgZ3Jv7YVPUxNufO3M-31">
          <mxGeometry y="26" width="140" height="84" as="geometry" />
        </mxCell>
        <mxCell id="TqkgZ3Jv7YVPUxNufO3M-35" value="Pedido-Artículo" style="swimlane;fontStyle=0;childLayout=stackLayout;horizontal=1;startSize=26;fillColor=none;horizontalStack=0;resizeParent=1;resizeParentMax=0;resizeLast=0;collapsible=1;marginBottom=0;whiteSpace=wrap;html=1;" vertex="1" parent="1">
          <mxGeometry x="834" y="704" width="140" height="110" as="geometry" />
        </mxCell>
        <mxCell id="TqkgZ3Jv7YVPUxNufO3M-37" value="- CodArtículo: int" style="text;strokeColor=none;fillColor=none;align=left;verticalAlign=top;spacingLeft=4;spacingRight=4;overflow=hidden;rotatable=0;points=[[0,0.5],[1,0.5]];portConstraint=eastwest;whiteSpace=wrap;html=1;" vertex="1" parent="TqkgZ3Jv7YVPUxNufO3M-35">
          <mxGeometry y="26" width="140" height="26" as="geometry" />
        </mxCell>
        <mxCell id="TqkgZ3Jv7YVPUxNufO3M-38" value="- CodPedido: int&lt;div&gt;&lt;br&gt;&lt;/div&gt;&lt;div&gt;- NumUnidades: int&lt;/div&gt;" style="text;strokeColor=none;fillColor=none;align=left;verticalAlign=top;spacingLeft=4;spacingRight=4;overflow=hidden;rotatable=0;points=[[0,0.5],[1,0.5]];portConstraint=eastwest;whiteSpace=wrap;html=1;" vertex="1" parent="TqkgZ3Jv7YVPUxNufO3M-35">
          <mxGeometry y="52" width="140" height="58" as="geometry" />
        </mxCell>
        <mxCell id="TqkgZ3Jv7YVPUxNufO3M-39" value="IVA" style="swimlane;fontStyle=0;childLayout=stackLayout;horizontal=1;startSize=26;fillColor=none;horizontalStack=0;resizeParent=1;resizeParentMax=0;resizeLast=0;collapsible=1;marginBottom=0;whiteSpace=wrap;html=1;" vertex="1" parent="1">
          <mxGeometry x="1084" y="396" width="140" height="88" as="geometry" />
        </mxCell>
        <mxCell id="TqkgZ3Jv7YVPUxNufO3M-40" value="- CodIVA: int&lt;div&gt;- Cantidad: double&lt;/div&gt;" style="text;strokeColor=none;fillColor=none;align=left;verticalAlign=top;spacingLeft=4;spacingRight=4;overflow=hidden;rotatable=0;points=[[0,0.5],[1,0.5]];portConstraint=eastwest;whiteSpace=wrap;html=1;" vertex="1" parent="TqkgZ3Jv7YVPUxNufO3M-39">
          <mxGeometry y="26" width="140" height="62" as="geometry" />
        </mxCell>
        <mxCell id="TqkgZ3Jv7YVPUxNufO3M-43" value="Envase" style="swimlane;fontStyle=0;childLayout=stackLayout;horizontal=1;startSize=26;fillColor=none;horizontalStack=0;resizeParent=1;resizeParentMax=0;resizeLast=0;collapsible=1;marginBottom=0;whiteSpace=wrap;html=1;" vertex="1" parent="1">
          <mxGeometry x="1133" y="539" width="140" height="77" as="geometry" />
        </mxCell>
        <mxCell id="TqkgZ3Jv7YVPUxNufO3M-44" value="- Código: int&lt;div&gt;- Descripción: text&lt;/div&gt;&lt;div&gt;- Precio: double&lt;/div&gt;" style="text;strokeColor=none;fillColor=none;align=left;verticalAlign=top;spacingLeft=4;spacingRight=4;overflow=hidden;rotatable=0;points=[[0,0.5],[1,0.5]];portConstraint=eastwest;whiteSpace=wrap;html=1;" vertex="1" parent="TqkgZ3Jv7YVPUxNufO3M-43">
          <mxGeometry y="26" width="140" height="51" as="geometry" />
        </mxCell>
      </root>
    </mxGraphModel>
  </diagram>
</mxfile>
